<svg width="65" height="68" viewBox="0 0 65 68" fill="none" xmlns="http://www.w3.org/2000/svg"><path d="M41.788 48.616l.712-1.541 1.1 1.99-1.165.6-.647-1.05zM42.931 19.576l-3.517.62 1.597 2.89-1.469.17-4.36-7.275 1.274-.493 2.245 3.574 1.619-.342-3.432-5.072 1.143-.685 4.9 6.613zM23.332 51.312h-1.38l-.692-3.83h1.295l.777 3.83zM23.937 54.821l-3.54 4.452-1.014-.32 3.432-4.644v-.087l1.036.6h.086zM63.242 17.329l-.517.75-.519-2.805 1.036 2.055z" fill="#000"/><path d="M58.78 14.59l1.04 4.576-4.91 10.1-4.579.55.18 1.475 5.392-.648 5.494-11.3-.945-4.156 2.608-2-.22 1.972-1.37.25.517 2.802.501.106-.214 1.922-5.761 11.405-7.225.921-.332-1.763-1.474.274.317 1.68-.28.036.192 1.473.363-.047.675 3.58-1.843.356-3.392.906.39 1.434 3.344-.892 3.247-.628-.931-4.945 1.202-.154.518 2.182.665 3.63-9.881 2.016.302 1.456 11.315-2.309-.934-5.1-.49-2.065 5.234-.669 6.24-12.35 1.2-10.795-6.156 4.72zM50.511 31.291zM26.182 26.916h1.467l3.519-7.084-1.274-.085-3.712 7.169zM32.485 19.982l-3.303 6.977L30.5 27l3.259-6.954-1.273-.065zM31.88 35.733l.69-3.681-1.38-.321-.432 3.745 1.122.257zM28.34 10.823l-1.057.364-10.015-.45 2.158 3.274 5.547-.684.431.428-.97 1.54.647.493H31.6l.625 2.054h1.123l-.777-2.739 3.712-2.397 1.101-5.885.647.235.82 5.821 1.836 3.018 1.122-.428-1.619-2.504-1.058-6.741-4.64-1.712-.194-.599.237-.278 4.317 1.561L37.147 1l-2.16 1.177L32.572 1l-1.468 1.862-2.763-.77-.431 2.996 2.417.791v.856l1.274.407-.238.278-1.468.236-.086 1.305-3.885.386-.26-.92 4.145-1.606-.475-.856-5.137 1.862.777 2.74 4.727-.407.043 2.417-.302.065-1.101-1.82zm-8.202 1.904l-.518-.748 4.21.342-3.692.406zm16.88-10.442l.301 1.198-1.511-.514 1.21-.684zM30.52 5.152l-1.489-.578.302-1.391 1.295.192-.108 1.777zm-3.28 7.982l-.648-1.028.971-.277.561 1.006-.885.299zm5.784-11.15l.798.492-.711.793-.691-.3.604-.984zm-1.9 2.868l.109-1.177 1.683.792-.302 1.177-1.49-.792zm-.107 3.745l2.59-.085.453-2.547.238.086.324.214-.13.963h.928l.194-.963.389.106-.41 2.74-1.382 1.134-3.238.15.044-1.798zm.086 4.794v-1.69l2.85.17 1.035-.62v.855l-3.97 2.42-2.85-.365 2.935-.77z" fill="#000"/><path d="M10.986 40.89l.843.6 6.216-5.886.561.9 4.122-2.141.41.62 1.166-.64-.453-.772-.065-2.183-1.015.15-.129 2.162-.777-.193.302-1.947-1.08-.107-.604 2.61-.755.514-.799-1.669-5.093 4.708-6.304 3.082-1.445.235.668-1.327 2.526-1.048 9.13-10.422.691-2.055 1.705-.17.367-1.285-2.33.107.625-1.412 3.497-.322.733-1.283-3.583.17.648-1.219 3.993.086-3.064 6.014 3.107.085 3.864-6.143-1.187-.042-3.173 5.072-.604-.021 3.26-6.228-5.57-.065 2.352-.62.281-1.134 3.216-.107.13 1.412 1.381.086-.41-2.846-5.526.449-.345 1.177-3.734 1.049.54 1.262-12.11-.406-3.95-1.82L0 19.576l.475 1.39 1.36-.79.776 1.347-2.158 2.503 3.626.514-1.036 1.37-1.748.834.97 1.028 1.641-.685 1.75 1.049 1.704-1.134 7.123-.235 2.137 1.411-5.634 6.014-6.216-.685-2.159 2.504-1.381.235.151.856 2.158-.236.281-.534 1.339-1.563 4.748.578-.388.386-5.44 1.133-.388 1.563-1.425.492.15.706 2.246-.449.453-1.477 3.561-.642-.819 1.006-2.483 1.092-.95 2.054-.906.342.302.878.086-.086 4.145-.513 3.13-1.54-.195.598zM2.85 19.66l.669-.385.755.536-.798.877-.626-1.027zm2.676 7l-1.014-.58 1.036-1.368 1.188 1.198-1.21.75zm9.173-1.264l-6.108.236-1.92-2.055 1.035-1.262-1.381-.642-1.209 1.412-1.619-.193 1.511-1.776 5.548.322 8.051.363-1.749 3.83.777 1.136-.258.235-2.678-1.605z" fill="#000"/><path d="M38.657 35.433l-1.683-.171-2.59-5.457 2.267-9.823-1.23-.085-2.397 10.379 2.979 6.42 4.684.235-3.692 11.427-2.222-.491-1.62-1.82-2.438-7.019-4.706-6.014-.15-2.567 1.423-1.22-.237-1.455-2.612 2.226.281 3.959.95 1.368-3.799 3.747-6.799 7.104.583 4.451 3.086 3.274-2.05 4.516-2.073-3.06-5.87.6L9 57.324l1.294-.085.605.62-.799 1.605-1.273-.277-.195 1.048 2.116 1.091-.54.963-1.122-.086-.345 1.028L14.18 64.6l6.82-1.99 1.231.77 1.36-.513.108-2.504-.972-.492 2.482-3.424 2.85.277 2.158-7.467-4.727.278-.54-2.29 5.634-4.408 1.252 3.852 2.288 2.481 2.677.58 4.64-14.254-2.785-.064zM14.008 56.748l1.295 1.648-2.762-.386-.67-1.026 2.137-.236zm8.353 5.286l-1.1-.707.13-.642.992.471-.022.878zm.799-15.323l1.122 4.194h3.886l-.216.728-2.482-.342-.346 1.07 2.44.427-.152.514-2.439-.45-.302 1.071 2.374.535-.345.813-2.31.064-3.13 4.301-.863.086-.518 1.605-6.044 1.905-2.158-.642.41-.813 5.547.085v-1.026l-6.302-.429.517-.942 5.526.771 2.85-6.87-3.26-3.594-.41-3.232 9.994-10.208 1.964 2.504-1.274 1.091.238 1.456 1.662.513-5.98 4.815zm6.907-5.5l-1.338-.321-.108-.706.777-.662.67 1.625v.064zM47 51.261l2.47-.176.076.829 1.492-.134-.363-3.98-5.361-.112-3.494-4.512-1.188.906 3.931 5.076 4.74.1.032.346-2.442.175.107 1.482zM43.78 51.404zM48.73 56.263l-1.496.07.151 3.167 1.497-.07-.151-3.167z" fill="#000"/><path d="M50.778 51.824l-4.24.384-1.648-1.802-1.11.998 2.15 2.35 4.265-.385.577.598-3.012.374.186 1.474 1.35-.167.095 4.629-.788 1.529-.079-.046-6.394 1.628-2.155-1.198 5.93-.153-.033-1.247-.297.007.915-2.836-.936-4.243-8.024-2.328-.42 1.427 7.17 2.08.66 2.991-.44 1.363-2.374-2.216-4.504 1.198.389 1.436 3.696-.985 2.306 2.153-3.743.096-.03-.018.937-.222-.291-1.214-2.44.577-.177 1.143 1.535.914-1.673.39.276 1.157 1.24-.29 2.315 1.288 6.384-1.625 2.344 1.354 1.308-3.128-1.415-1.309-.092-4.45 3.422-.424-3.135-3.252zm-.207 9.742l-.463 1.109-.727-.42.625-1.212.565.523zM60.33 19.368l2.698-.15.084 1.484-2.699.15-.084-1.484z" fill="#000"/><path d="M32.592 64.495S43.902 38.6 44.184 37.7c.215-.749-.303-3.402.15-5.927.086-.514.389-.963.583-1.456.475-1.112 12.714-28.89 12.714-28.89h6.604s-13.36 29.81-13.836 30.966c-1.316 3.103-4.532 4.73-4.964 5.693-.453.941-11.138 26.408-11.138 26.408h-1.705z" fill="#00477E"/><path d="M55.731 1.578S43.427 30.362 42.996 31.196c-.604 1.198-3.065 2.46-4.339 4.108-.344.43-.496 1.007-.755 1.563-.496 1.092-11.936 27.456-11.936 27.456h6.52S43.103 39.992 43.6 38.857c1.078-2.482.301-6.142.604-7.19.28-1.006 13.253-30.089 13.253-30.089H55.73z" fill="#E30613"/><path d="M55.731 1.579S43.428 30.362 42.996 31.197c-.605 1.198-3.065 2.46-4.338 4.108-.345.428-.497 1.006-.756 1.563-.496 1.092-11.936 27.456-11.936 27.456h6.518s10.62-24.331 11.117-25.466c1.078-2.482.301-6.142.604-7.19.28-1.006 13.253-30.09 13.253-30.09H55.73z" stroke="#E30613" stroke-width="1.92"/><path d="M26.311 64.302l12.325-28.805c.302-.706 2.87-2.097 4.425-4.237.324-.428.431-.941.648-1.434.496-1.113 12.237-28.248 12.237-28.248h-6.41S38.506 26.701 38.01 27.836c-1.078 2.483-.193 6.227-.582 7.19-.388.985-12.778 29.276-12.778 29.276h1.662z" fill="#fff"/><path d="M26.312 64.302l12.324-28.804c.303-.707 2.87-2.097 4.425-4.237.324-.428.432-.941.648-1.434.496-1.112 12.237-28.248 12.237-28.248h-6.41S38.506 26.703 38.01 27.837c-1.079 2.483-.194 6.228-.582 7.19-.388.985-12.779 29.275-12.779 29.275h1.663z" stroke="#000" stroke-width="1.92"/><path d="M60.63 1.43L45.263 36.867m-1.77-5.222L28.125 67.085" stroke="#fff" stroke-width="1.92"/><path d="M52.32 1.643L38.228 34.706" stroke="#000" stroke-width="1.92"/></svg>