<?xml version="1.0" encoding="UTF-8"?>
<svg version="1.1" xmlns="http://www.w3.org/2000/svg" width="201" height="45">
<path d="M0 0 C17 0 17 0 22 2 C24.49210439 4.49210439 24.26015661 6.00360788 24.2734375 9.41015625 C24.26570313 10.09980469 24.25796875 10.78945312 24.25 11.5 C24.25773437 12.18964844 24.26546875 12.87929687 24.2734375 13.58984375 C24.25333293 18.74666707 24.25333293 18.74666707 22 21 C22.4846875 21.5053125 22.969375 22.010625 23.46875 22.53125 C25.57353347 25.9246764 25.46875262 28.53158266 25.5 32.5 C25.5309375 33.8096875 25.561875 35.119375 25.59375 36.46875 C25 40 25 40 20 44 C13.4 44 6.8 44 0 44 C0 29.48 0 14.96 0 0 Z M8 6 C8 10.29 8 14.58 8 19 C11.465 18.505 11.465 18.505 15 18 C15.05395478 16.37536158 15.09277195 14.75021459 15.125 13.125 C15.15980469 11.76761719 15.15980469 11.76761719 15.1953125 10.3828125 C15.24324836 7.81193006 15.24324836 7.81193006 13 6 C11.35 6 9.7 6 8 6 Z M8 25 C8 29.62 8 34.24 8 39 C12.34184202 38.81535634 12.34184202 38.81535634 16 37 C16.23819228 34.70384446 16.23819228 34.70384446 16.25 32.0625 C16.27578125 31.16660156 16.3015625 30.27070313 16.328125 29.34765625 C16.21984375 28.57292969 16.1115625 27.79820313 16 27 C12.90754997 24.53774984 12.90754997 24.53774984 8 25 Z " fill="#005298" transform="translate(41,0)"/>
<path d="M0 0 C2.97 0 5.94 0 9 0 C9.33 11.88 9.66 23.76 10 36 C11.32 36.33 12.64 36.66 14 37 C14 24.79 14 12.58 14 0 C16.97 0 19.94 0 23 0 C23 14.19 23 28.38 23 43 C19.66666667 43 16.33333333 43 13 43 C12.505 43.495 12.505 43.495 12 44 C4.76190476 44.46697389 4.76190476 44.46697389 2.0625 42.8125 C-0.63062554 38.21834466 -0.1326423 32.79960186 -0.09765625 27.63671875 C-0.0962413 26.84473587 -0.09482635 26.05275299 -0.09336853 25.23677063 C-0.08779457 22.72030781 -0.07524693 20.20393569 -0.0625 17.6875 C-0.05748163 15.97591275 -0.05291931 14.26432409 -0.04882812 12.55273438 C-0.03783368 8.36845492 -0.02058707 4.18424281 0 0 Z " fill="#004F9C" transform="translate(148,1)"/>
<path d="M0 0 C1.56041016 -0.04253906 1.56041016 -0.04253906 3.15234375 -0.0859375 C6.76725102 0.48662499 7.87793507 1.4859002 10.0625 4.375 C11.85370387 9.58316789 11.24846544 15.36003107 11.24780273 20.79223633 C11.24998908 22.80246155 11.26816679 24.81213736 11.28710938 26.82226562 C11.29000977 28.73362305 11.29000977 28.73362305 11.29296875 30.68359375 C11.29707764 31.84689209 11.30118652 33.01019043 11.30541992 34.20874023 C11.00653935 38.10440073 10.05452755 40.9701411 7.8046875 44.15625 C3.92882327 46.8676169 -1.46002927 46.02758683 -5.9375 45.375 C-9.6623103 42.74572214 -11.14192476 40.76962923 -11.9375 36.375 C-12.19072847 31.94081597 -12.16877287 27.50317134 -12.1875 23.0625 C-12.208125 21.85142578 -12.22875 20.64035156 -12.25 19.39257812 C-12.27799538 12.99913395 -12.28711167 7.9237726 -8.9375 2.375 C-5.51828453 0.09552302 -4.03439823 0.04986895 0 0 Z M-1.9375 6.375 C-3.27746932 7.48847596 -3.27746932 7.48847596 -3.05102539 10.33422852 C-3.04578857 11.62772217 -3.04055176 12.92121582 -3.03515625 14.25390625 C-3.0337413 14.9405687 -3.03232635 15.62723114 -3.03086853 16.33470154 C-3.02525479 18.53567801 -3.01270007 20.73655409 -3 22.9375 C-2.99498676 24.42643083 -2.99042355 25.91536324 -2.98632812 27.40429688 C-2.97528093 31.06123075 -2.95800713 34.71810558 -2.9375 38.375 C-0.99146726 38.96570014 -0.99146726 38.96570014 1.0625 39.375 C2.40246932 38.26152404 2.40246932 38.26152404 2.17602539 35.41577148 C2.17078857 34.12227783 2.16555176 32.82878418 2.16015625 31.49609375 C2.15803383 30.46610008 2.15803383 30.46610008 2.15586853 29.41529846 C2.15025479 27.21432199 2.13770007 25.01344591 2.125 22.8125 C2.11998676 21.32356917 2.11542355 19.83463676 2.11132812 18.34570312 C2.10028093 14.68876925 2.08300713 11.03189442 2.0625 7.375 C0.11646726 6.78429986 0.11646726 6.78429986 -1.9375 6.375 Z " fill="#005298" transform="translate(130.9375,-0.375)"/>
<path d="M0 0 C1.56041016 -0.04253906 1.56041016 -0.04253906 3.15234375 -0.0859375 C6.74676569 0.48338034 7.85596875 1.53876262 10.0625 4.375 C10.98438461 7.14065382 11.18035222 8.75783702 11.16015625 11.60546875 C11.15693359 12.40791016 11.15371094 13.21035156 11.15039062 14.03710938 C11.14201172 14.87048828 11.13363281 15.70386719 11.125 16.5625 C11.12048828 17.40748047 11.11597656 18.25246094 11.11132812 19.12304688 C11.09955403 21.20706155 11.0816189 23.29103977 11.0625 25.375 C6.4425 25.375 1.8225 25.375 -2.9375 25.375 C-2.6075 29.995 -2.2775 34.615 -1.9375 39.375 C-0.4525 38.88 -0.4525 38.88 1.0625 38.375 C1.86813638 36.26915562 1.86813638 36.26915562 2.25 33.8125 C2.48783203 32.57306641 2.48783203 32.57306641 2.73046875 31.30859375 C2.84003906 30.67050781 2.94960937 30.03242188 3.0625 29.375 C5.7025 29.375 8.3425 29.375 11.0625 29.375 C11.62957317 39.0152439 11.62957317 39.0152439 8.0625 43.375 C3.61097103 46.34268598 -0.71893886 46.13031806 -5.9375 45.375 C-9.60862291 42.73179151 -11.15355142 40.74817489 -11.9375 36.375 C-12.19072847 31.94081597 -12.16877287 27.50317134 -12.1875 23.0625 C-12.208125 21.85142578 -12.22875 20.64035156 -12.25 19.39257812 C-12.27799538 12.99913395 -12.28711167 7.9237726 -8.9375 2.375 C-5.51828453 0.09552302 -4.03439823 0.04986895 0 0 Z M-1.9375 6.375 C-3.25979189 9.01958379 -3.03427194 11.05261301 -3 14 C-2.99097656 15.00289062 -2.98195313 16.00578125 -2.97265625 17.0390625 C-2.96105469 17.80992188 -2.94945313 18.58078125 -2.9375 19.375 C-0.9575 19.375 1.0225 19.375 3.0625 19.375 C3.11697047 17.95876784 3.15550508 16.54191809 3.1875 15.125 C3.21070312 14.33609375 3.23390625 13.5471875 3.2578125 12.734375 C3.0453378 10.16768059 2.34904105 8.5833933 1.0625 6.375 C0.0725 6.375 -0.9175 6.375 -1.9375 6.375 Z " fill="#005298" transform="translate(82.9375,-0.375)"/>
<path d="M0 0 C2.62107572 0.42834701 3.35880673 1.27719267 5.0078125 3.328125 C5.36857605 5.2454071 5.36857605 5.2454071 5.34838867 7.43237305 C5.34816208 8.25299728 5.34793549 9.07362152 5.34770203 9.91911316 C5.33221817 10.80045425 5.31673431 11.68179535 5.30078125 12.58984375 C5.29653641 13.49563675 5.29229156 14.40142975 5.28791809 15.33467102 C5.27112098 18.22862433 5.233467 21.12188206 5.1953125 24.015625 C5.18026699 25.97720349 5.16657835 27.93879289 5.15429688 29.90039062 C5.12121407 34.70990356 5.06942472 39.51889633 5.0078125 44.328125 C2.3678125 44.328125 -0.2721875 44.328125 -2.9921875 44.328125 C-3.01200684 43.27834473 -3.03182617 42.22856445 -3.05224609 41.14697266 C-3.12820948 37.25919239 -3.21694048 33.37179097 -3.30957031 29.484375 C-3.34789854 27.80053171 -3.38274462 26.11660545 -3.4140625 24.43261719 C-3.45963037 22.01467194 -3.51763673 19.59729972 -3.578125 17.1796875 C-3.58967621 16.4244278 -3.60122742 15.66916809 -3.61312866 14.89102173 C-3.59548816 10.64987302 -3.59548816 10.64987302 -5.9921875 7.328125 C-6.6521875 7.328125 -7.3121875 7.328125 -7.9921875 7.328125 C-8.3221875 19.538125 -8.6521875 31.748125 -8.9921875 44.328125 C-11.6321875 44.328125 -14.2721875 44.328125 -16.9921875 44.328125 C-16.9921875 30.138125 -16.9921875 15.948125 -16.9921875 1.328125 C-13.6921875 1.328125 -10.3921875 1.328125 -6.9921875 1.328125 C-5.11954074 -0.54452176 -2.49458803 0.09205122 0 0 Z " fill="#005298" transform="translate(194.9921875,-0.328125)"/>
<path d="M0 0 C1.2065625 0.0309375 1.2065625 0.0309375 2.4375 0.0625 C2.4375 2.3725 2.4375 4.6825 2.4375 7.0625 C1.468125 7.51625 0.49875 7.97 -0.5 8.4375 C-3.63329582 9.72036221 -3.63329582 9.72036221 -4.5625 12.0625 C-4.71858023 14.46810273 -4.82054458 16.84952772 -4.87890625 19.2578125 C-4.89968735 19.96525604 -4.92046844 20.67269958 -4.94187927 21.40158081 C-5.00731078 23.66345425 -5.06622974 25.92544462 -5.125 28.1875 C-5.16819133 29.72006422 -5.21180582 31.25261657 -5.25585938 32.78515625 C-5.36298555 36.54415073 -5.4642709 40.30326292 -5.5625 44.0625 C-8.2025 44.0625 -10.8425 44.0625 -13.5625 44.0625 C-13.5625 29.8725 -13.5625 15.6825 -13.5625 1.0625 C-10.2625 1.0625 -6.9625 1.0625 -3.5625 1.0625 C-2.5625 0.0625 -2.5625 0.0625 0 0 Z " fill="#005398" transform="translate(114.5625,-0.0625)"/>
<path d="M0 0 C2.97 0 5.94 0 9 0 C9.02683697 3.14588944 9.04675902 6.29155271 9.0625 9.4375 C9.07087891 10.33533203 9.07925781 11.23316406 9.08789062 12.15820312 C9.09111328 13.01220703 9.09433594 13.86621094 9.09765625 14.74609375 C9.10289307 15.53685303 9.10812988 16.3276123 9.11352539 17.14233398 C9 19 9 19 8 20 C5.0625 20.25 5.0625 20.25 2 20 C-0.03120707 16.95318939 -0.24659875 16.39881676 -0.1953125 12.98828125 C-0.18886719 12.23095703 -0.18242187 11.47363281 -0.17578125 10.69335938 C-0.15902344 9.90767578 -0.14226563 9.12199219 -0.125 8.3125 C-0.11597656 7.51521484 -0.10695313 6.71792969 -0.09765625 5.89648438 C-0.07411585 3.930861 -0.03824547 1.96539225 0 0 Z " fill="#005297" transform="translate(12,24)"/>
<path d="M0 0 C3 0.125 3 0.125 4 1.125 C4.0983721 2.45543625 4.13078592 3.79093344 4.1328125 5.125 C4.13474609 6.3315625 4.13474609 6.3315625 4.13671875 7.5625 C4.13285156 8.408125 4.12898437 9.25375 4.125 10.125 C4.12886719 10.970625 4.13273438 11.81625 4.13671875 12.6875 C4.13542969 13.491875 4.13414063 14.29625 4.1328125 15.125 C4.13168457 15.8675 4.13055664 16.61 4.12939453 17.375 C4 19.125 4 19.125 3 20.125 C0 20.25 0 20.25 -3 20.125 C-4.5220959 18.6029041 -4.12959521 17.24289918 -4.1328125 15.125 C-4.13410156 14.320625 -4.13539063 13.51625 -4.13671875 12.6875 C-4.13285156 11.841875 -4.12898437 10.99625 -4.125 10.125 C-4.12886719 9.279375 -4.13273438 8.43375 -4.13671875 7.5625 C-4.13542969 6.758125 -4.13414062 5.95375 -4.1328125 5.125 C-4.13168457 4.3825 -4.13055664 3.64 -4.12939453 2.875 C-3.90144909 -0.20785461 -3.13017918 0.13042413 0 0 Z " fill="#49811A" transform="translate(5,23.875)"/>
<path d="M0 0 C4.15963996 2.07981998 6.25836959 3.26833639 9 7 C9.42258578 10.70414693 9.29246313 14.28896784 9 18 C6.03 18 3.06 18 0 18 C0 12.06 0 6.12 0 0 Z " fill="#488019" transform="translate(24,26)"/>
<path d="M0 0 C3.8557143 1.84547009 6.38577574 3.51436765 9 7 C9.41868657 10.37533742 9.29554794 13.617618 9 17 C7.87411986 16.04270084 6.7493285 15.08412105 5.625 14.125 C4.99851562 13.59132813 4.37203125 13.05765625 3.7265625 12.5078125 C0.02482622 9.27507448 0.02482622 9.27507448 -0.1953125 6.8359375 C-0.17210938 6.02382813 -0.14890625 5.21171875 -0.125 4.375 C-0.10695313 3.55773437 -0.08890625 2.74046875 -0.0703125 1.8984375 C-0.04710938 1.27195312 -0.02390625 0.64546875 0 0 Z " fill="#005397" transform="translate(24,12)"/>
<path d="M0 0 C2.97 0 5.94 0 9 0 C9 2.97 9 5.94 9 9 C6.03 9 3.06 9 0 9 C0 6.03 0 3.06 0 0 Z " fill="#488019" transform="translate(12,12)"/>
<path d="M0 0 C2.97 0 5.94 0 9 0 C9 2.97 9 5.94 9 9 C6.03 9 3.06 9 0 9 C0 6.03 0 3.06 0 0 Z " fill="#005398" transform="translate(12,0)"/>
<path d="M0 0 C3.375 -0.125 3.375 -0.125 7 0 C9 2 9 2 9.25 4.5 C9 7 9 7 7 9 C3.375 9.125 3.375 9.125 0 9 C0 6.03 0 3.06 0 0 Z " fill="#48811A" transform="translate(24,0)"/>
<path d="M0 0 C5.75 -0.125 5.75 -0.125 8 1 C8.125 3.875 8.125 3.875 8 7 C6 9 6 9 2.875 9.125 C1.451875 9.063125 1.451875 9.063125 0 9 C0 6.03 0 3.06 0 0 Z " fill="#005397" transform="translate(1,12)"/>
<path d="M0 0 C2.875 -0.125 2.875 -0.125 6 0 C8 2 8 2 8.125 5.125 C8.08375 6.07375 8.0425 7.0225 8 8 C5.29120665 9.35439668 2.99066732 9.06501451 0 9 C0 6.03 0 3.06 0 0 Z " fill="#478319" transform="translate(1,0)"/>
</svg>
