<?xml version="1.0" encoding="UTF-8"?>
<svg version="1.1" xmlns="http://www.w3.org/2000/svg" width="193" height="88">
<path d="M0 0 C63.69 0 127.38 0 193 0 C193 29.04 193 58.08 193 88 C129.31 88 65.62 88 0 88 C0 58.96 0 29.92 0 0 Z " fill="#434345" transform="translate(0,0)"/>
<path d="M0 0 C8.55749389 5.41005522 16.59591723 12.95795801 19.27734375 23.0546875 C20.65764923 32.89303509 19.99313936 41.67776585 15.64453125 50.671875 C14.64453125 51.671875 14.64453125 51.671875 12.51219177 51.79212952 C11.57287308 51.78990891 10.63355438 51.78768829 9.66577148 51.78540039 C8.60474716 51.78532486 7.54372284 51.78524933 6.45054626 51.78517151 C4.71932274 51.77742958 4.71932274 51.77742958 2.953125 51.76953125 C1.77814957 51.7681163 0.60317413 51.76670135 -0.60740662 51.76524353 C-4.37761939 51.75962492 -8.14777379 51.74706926 -11.91796875 51.734375 C-14.46679602 51.7293624 -17.01562422 51.72479908 -19.56445312 51.72070312 C-25.82814508 51.70964944 -32.09180274 51.69289321 -38.35546875 51.671875 C-38.48205407 44.60623259 -38.56972938 37.54088154 -38.63012695 30.47436523 C-38.65529976 28.06963168 -38.68944057 25.66497485 -38.73266602 23.26049805 C-38.79319342 19.80758767 -38.82165119 16.35568705 -38.84375 12.90234375 C-38.86955643 11.82413864 -38.89536285 10.74593353 -38.92195129 9.63505554 C-38.92298732 6.88950715 -38.89067779 4.36473226 -38.35546875 1.671875 C-35.96533203 -0.45751953 -35.96533203 -0.45751953 -33.35546875 -1.328125 C-32.61425781 -1.71097656 -31.87304688 -2.09382812 -31.109375 -2.48828125 C-21.46000124 -5.43099807 -8.93935664 -4.45092442 0 0 Z " fill="#424244" transform="translate(116.35546875,11.328125)"/>
<path d="M0 0 C30.69 0 61.38 0 93 0 C93 0.33 93 0.66 93 1 C92.32195312 1.08636719 91.64390625 1.17273438 90.9453125 1.26171875 C77.97688523 3.21955611 68.56925154 9.07742625 60.1796875 19.1953125 C56.0661152 24.9625822 54.52612907 30.05314505 52 37 C34.84 37 17.68 37 0 37 C0 24.79 0 12.58 0 0 Z " fill="#C41A1F" transform="translate(0,0)"/>
<path d="M0 0 C17.16 0 34.32 0 52 0 C53.98 4.95 55.96 9.9 58 15 C66.53813089 26.04934586 75.55998893 32.28205879 89 36 C89 36.33 89 36.66 89 37 C59.63 37 30.26 37 0 37 C0 24.79 0 12.58 0 0 Z " fill="#C51A20" transform="translate(0,51)"/>
<path d="M0 0 C29.7 0 59.4 0 90 0 C90 12.21 90 24.42 90 37 C73.5 37 57 37 40 37 C39.01 33.37 38.02 29.74 37 26 C31.36479878 14.86098827 21.68065095 7.0294983 10 3 C6.68526563 2.15359056 3.38486517 1.49194353 0 1 C0 0.67 0 0.34 0 0 Z " fill="#C51A1F" transform="translate(103,0)"/>
<path d="M0 0 C16.5 0 33 0 50 0 C50 12.21 50 24.42 50 37 C21.29 37 -7.42 37 -37 37 C-37 36.67 -37 36.34 -37 36 C-36.40574219 35.85304687 -35.81148438 35.70609375 -35.19921875 35.5546875 C-23.01677379 32.25803832 -12.31026881 26.37438479 -5.40234375 15.48046875 C-2.65500532 10.26613255 -1.47686578 5.90746312 0 0 Z " fill="#C51A20" transform="translate(143,51)"/>
<path d="M0 0 C0.66 0 1.32 0 2 0 C2 16.83 2 33.66 2 51 C19.49 51 36.98 51 55 51 C55 51.66 55 52.32 55 53 C53.09375 54.40234375 53.09375 54.40234375 50.5 55.9375 C49.6646875 56.44152344 48.829375 56.94554687 47.96875 57.46484375 C41.10718951 61.0129928 35.37439707 62.53665106 27.625 62.4375 C26.78791504 62.42920166 25.95083008 62.42090332 25.08837891 62.41235352 C18.71511494 62.23817659 13.5063226 61.39472366 8 58 C7.22527344 57.525625 6.45054688 57.05125 5.65234375 56.5625 C-1.74347478 51.42617194 -7.31665908 43.62413292 -10 35 C-11.6833292 22.29028864 -9.58176543 12.58574512 -1.921875 2.17578125 C-0.97054687 1.09876953 -0.97054687 1.09876953 0 0 Z " fill="#FBFBFB" transform="translate(70,18)"/>
<path d="M0 0 C8.55749389 5.41005522 16.59591723 12.95795801 19.27734375 23.0546875 C20.65764923 32.89303509 19.99313936 41.67776585 15.64453125 50.671875 C14.64453125 51.671875 14.64453125 51.671875 12.51219177 51.79212952 C11.57287308 51.78990891 10.63355438 51.78768829 9.66577148 51.78540039 C8.60474716 51.78532486 7.54372284 51.78524933 6.45054626 51.78517151 C4.71932274 51.77742958 4.71932274 51.77742958 2.953125 51.76953125 C1.77814957 51.7681163 0.60317413 51.76670135 -0.60740662 51.76524353 C-4.37761939 51.75962492 -8.14777379 51.74706926 -11.91796875 51.734375 C-14.46679602 51.7293624 -17.01562422 51.72479908 -19.56445312 51.72070312 C-25.82814508 51.70964944 -32.09180274 51.69289321 -38.35546875 51.671875 C-38.48205407 44.60623259 -38.56972938 37.54088154 -38.63012695 30.47436523 C-38.65529976 28.06963168 -38.68944057 25.66497485 -38.73266602 23.26049805 C-38.79319342 19.80758767 -38.82165119 16.35568705 -38.84375 12.90234375 C-38.86955643 11.82413864 -38.89536285 10.74593353 -38.92195129 9.63505554 C-38.92298732 6.88950715 -38.89067779 4.36473226 -38.35546875 1.671875 C-35.96533203 -0.45751953 -35.96533203 -0.45751953 -33.35546875 -1.328125 C-32.61425781 -1.71097656 -31.87304688 -2.09382812 -31.109375 -2.48828125 C-21.46000124 -5.43099807 -8.93935664 -4.45092442 0 0 Z M-34.35546875 2.671875 C-34.35546875 17.521875 -34.35546875 32.371875 -34.35546875 47.671875 C-27.54921875 47.775 -20.74296875 47.878125 -13.73046875 47.984375 C-11.59239746 48.02989502 -9.45432617 48.07541504 -7.25146484 48.12231445 C-5.54396124 48.13692673 -3.83644015 48.14966565 -2.12890625 48.16015625 C-1.25274658 48.18573608 -0.37658691 48.21131592 0.52612305 48.2376709 C4.86949013 48.2407513 7.72824198 48.06694924 11.17089844 45.2668457 C14.77957333 41.48115626 15.93827981 39.01321739 16.01953125 33.796875 C15.87698043 28.9572747 15.2241377 26.16625273 11.64453125 22.671875 C8.37673394 21.32480495 5.0945467 20.42245088 1.64453125 19.671875 C1.97453125 19.011875 2.30453125 18.351875 2.64453125 17.671875 C3.252687 12.76318931 3.48031269 8.93902751 0.70703125 4.734375 C-10.34850658 -2.71119129 -22.17024185 -1.3898673 -34.35546875 2.671875 Z " fill="#F3F3F3" transform="translate(116.35546875,11.328125)"/>
<path d="M0 0 C18.81 0 37.62 0 57 0 C53 12 53 12 52 14 C34.84 14 17.68 14 0 14 C0 9.38 0 4.76 0 0 Z " fill="#FDFDFD" transform="translate(0,23)"/>
<path d="M0 0 C17.16 0 34.32 0 52 0 C53.65 4.62 55.3 9.24 57 14 C38.19 14 19.38 14 0 14 C0 9.38 0 4.76 0 0 Z " fill="#FCFDFD" transform="translate(0,51)"/>
<path d="M0 0 C1 4 1 4 0 16 C-17.16 16 -34.32 16 -52 16 C-52 11.38 -52 6.76 -52 2 C-34.84 2 -17.68 2 0 2 C0 1.34 0 0.68 0 0 Z " fill="#104FA3" transform="translate(52,35)"/>
<path d="M0 0 C16.5 0 33 0 50 0 C50 4.62 50 9.24 50 14 C32.18 14 14.36 14 -4 14 C-3.01 10.7 -2.02 7.4 -1 4 C-0.67 2.68 -0.34 1.36 0 0 Z " fill="#FCFCFD" transform="translate(143,51)"/>
<path d="M0 0 C17.82 0 35.64 0 54 0 C54 4.62 54 9.24 54 14 C37.5 14 21 14 4 14 C3.01 10.37 2.02 6.74 1 3 C0.67 2.01 0.34 1.02 0 0 Z " fill="#FDFDFD" transform="translate(139,23)"/>
<path d="M0 0 C30.69 0 61.38 0 93 0 C93 0.33 93 0.66 93 1 C92.32195312 1.08636719 91.64390625 1.17273438 90.9453125 1.26171875 C84.15991055 2.28610769 76.0664261 3.9335739 71 9 C68.79132169 9.09432985 66.57958479 9.11742431 64.36889648 9.11352539 C63.67624695 9.11367142 62.98359741 9.11381744 62.2699585 9.1139679 C59.97030554 9.11326874 57.67073263 9.10547628 55.37109375 9.09765625 C53.78068588 9.09579208 52.19027743 9.09436817 50.59986877 9.09336853 C46.4060407 9.08954329 42.21224705 9.07971295 38.01843262 9.06866455 C33.74211086 9.05845057 29.46578356 9.05387094 25.18945312 9.04882812 C16.79295292 9.03809069 8.39648074 9.02101419 0 9 C0 6.03 0 3.06 0 0 Z " fill="#FDFCFC" transform="translate(0,0)"/>
<path d="M0 0 C9.11897701 -0.11614686 18.23769715 -0.20484264 27.35725403 -0.25906086 C31.59244014 -0.28509071 35.82711804 -0.32036611 40.06201172 -0.37719727 C44.15341139 -0.43175554 48.24432404 -0.46147022 52.33605957 -0.47438622 C53.89253398 -0.48358367 55.44898348 -0.50154427 57.00524902 -0.52865028 C65.62898598 -0.67280026 72.09339806 -0.5969175 79 5 C81.86312356 6.16617743 81.86312356 6.16617743 84.5 6.8125 C85.3559375 7.04582031 86.211875 7.27914062 87.09375 7.51953125 C87.7228125 7.67808594 88.351875 7.83664063 89 8 C89 8.33 89 8.66 89 9 C59.63 9 30.26 9 0 9 C0 6.03 0 3.06 0 0 Z " fill="#FDFAFA" transform="translate(0,79)"/>
<path d="M0 0 C16.17 0 32.34 0 49 0 C49 4.62 49 9.24 49 14 C32.83 14 16.66 14 0 14 C0 9.38 0 4.76 0 0 Z " fill="#0F4FA3" transform="translate(144,37)"/>
<path d="M0 0 C29.7 0 59.4 0 90 0 C90 2.97 90 5.94 90 9 C81.3413135 9.13979257 72.68302283 9.24601794 64.02344894 9.31087303 C60.00122615 9.34202035 55.97978239 9.38418186 51.95800781 9.45263672 C48.06756325 9.51843231 44.17786191 9.55383042 40.28690338 9.56926346 C38.81184456 9.58024332 37.33682065 9.60168136 35.86208344 9.63438034 C27.07026731 9.82134299 20.33427012 9.00450748 12.62237549 4.42617798 C8.62514348 2.25228477 4.47453809 1.57416639 0 1 C0 0.67 0 0.34 0 0 Z " fill="#FDFCFC" transform="translate(103,0)"/>
<path d="M0 0 C1.51170169 0.00934241 3.02341866 0.01645176 4.53514099 0.0214386 C8.48596061 0.04039668 12.43583976 0.08939729 16.3862915 0.1449585 C20.42862226 0.19639542 24.47110716 0.2190044 28.51367188 0.24414062 C36.42490751 0.29753001 44.33538316 0.38270296 52.24609375 0.48828125 C52.24609375 3.45828125 52.24609375 6.42828125 52.24609375 9.48828125 C23.53609375 9.48828125 -5.17390625 9.48828125 -34.75390625 9.48828125 C-34.75390625 9.15828125 -34.75390625 8.82828125 -34.75390625 8.48828125 C-34.13644531 8.32972656 -33.51898438 8.17117187 -32.8828125 8.0078125 C-32.03589844 7.77449219 -31.18898438 7.54117188 -30.31640625 7.30078125 C-29.08083984 6.97013672 -29.08083984 6.97013672 -27.8203125 6.6328125 C-24.8765246 5.67748223 -24.8765246 5.67748223 -23.03955078 4.29992676 C-15.81270169 -0.60577741 -8.38133342 -0.15316629 0 0 Z " fill="#FCFAFA" transform="translate(140.75390625,78.51171875)"/>
<path d="M0 0 C4.06267789 -0.05396915 8.12463799 -0.09366112 12.1875 -0.125 C13.33798828 -0.14175781 14.48847656 -0.15851562 15.67382812 -0.17578125 C16.78564453 -0.18222656 17.89746094 -0.18867187 19.04296875 -0.1953125 C20.06414795 -0.20578613 21.08532715 -0.21625977 22.13745117 -0.22705078 C26.28266618 0.10173813 29.05009728 1.05009728 32 4 C32.55979644 9.26208651 32.55979644 9.26208651 30.625 11.8125 C27.30446198 14.23904701 24.97449412 14.11670324 20.8984375 14.09765625 C19.68671875 14.09443359 18.475 14.09121094 17.2265625 14.08789062 C15.95554687 14.07951172 14.68453125 14.07113281 13.375 14.0625 C12.09625 14.05798828 10.8175 14.05347656 9.5 14.04882812 C6.33331355 14.03701213 3.16665104 14.01907621 0 14 C0 9.38 0 4.76 0 0 Z " fill="#F3F3F3" transform="translate(91,38)"/>
<path d="M0 0 C17.16 0 34.32 0 52 0 C44.03575129 7.96424871 36.47285449 10.48450629 25.375 10.5625 C15.17151563 10.41076048 7.43240368 8.23681411 0 1 C0 0.67 0 0.34 0 0 Z " fill="#FCFCFC" transform="translate(72,70)"/>
<path d="M0 0 C2.58396679 -0.08112454 5.16537568 -0.14054748 7.75 -0.1875 C8.47960937 -0.21263672 9.20921875 -0.23777344 9.9609375 -0.26367188 C13.21960783 -0.30810829 15.58155659 -0.2220312 18.48828125 1.3203125 C20 3 20 3 20.4375 6.0625 C20.293125 7.031875 20.14875 8.00125 20 9 C16.95318939 11.03120707 16.39881676 11.24659875 12.98828125 11.1953125 C12.23095703 11.18886719 11.47363281 11.18242187 10.69335938 11.17578125 C9.90767578 11.15902344 9.12199219 11.14226563 8.3125 11.125 C7.51521484 11.11597656 6.71792969 11.10695313 5.89648438 11.09765625 C3.930861 11.07411585 1.96539225 11.03824547 0 11 C0 7.37 0 3.74 0 0 Z " fill="#F8F8F8" transform="translate(91,20)"/>
<path d="M0 0 C0.66 0 1.32 0 2 0 C2 16.83 2 33.66 2 51 C19.49 51 36.98 51 55 51 C54.505 51.99 54.505 51.99 54 53 C36.51 53 19.02 53 1 53 C-0.24177521 50.51644959 -0.12036681 48.86892378 -0.11352539 46.09130859 C-0.11344986 45.07040131 -0.11337433 44.04949402 -0.11329651 42.99765015 C-0.10813522 41.89240997 -0.10297394 40.7871698 -0.09765625 39.6484375 C-0.0962413 38.5192691 -0.09482635 37.39010071 -0.09336853 36.22671509 C-0.08775744 32.60945012 -0.07520303 28.99224636 -0.0625 25.375 C-0.05748643 22.92708423 -0.05292328 20.47916748 -0.04882812 18.03125 C-0.0377844 12.02081234 -0.02103544 6.01041054 0 0 Z " fill="#A7A7A8" transform="translate(70,18)"/>
</svg>
